<?xml version="1.0" standalone="no"?>
<!DOCTYPE svg PUBLIC "-//W3C//DTD SVG 20010904//EN"
 "http://www.w3.org/TR/2001/REC-SVG-20010904/DTD/svg10.dtd">
<svg version="1.0" xmlns="http://www.w3.org/2000/svg"
 width="1280.000000pt" height="640.000000pt" viewBox="0 0 1280.000000 640.000000"
 preserveAspectRatio="xMidYMid meet">
<metadata>
Created by potrace 1.15, written by Peter Selinger 2001-2017
</metadata>
<g transform="translate(0.000000,640.000000) scale(0.100000,-0.100000)"
fill="#000000" stroke="none">
<path d="M12280 6039 c-67 -85 -75 -105 -75 -194 1 -85 27 -165 66 -201 28
-26 23 -65 -15 -115 -19 -24 -49 -73 -68 -109 l-33 -65 -3 -402 -3 -403 -29 0
c-20 0 -30 5 -30 15 0 9 -9 15 -22 15 -22 0 -23 -3 -21 -92 l1 -92 41 -47 41
-48 0 -360 0 -361 -55 0 c-30 0 -55 5 -55 10 0 6 -13 10 -30 10 l-30 0 0 -82
0 -82 70 -123 70 -123 0 -492 c0 -288 -4 -519 -10 -556 -6 -35 -26 -93 -44
-130 -49 -97 -56 -147 -56 -392 l0 -220 -1720 0 -1720 0 0 321 c0 210 -4 327
-11 341 -25 46 -48 48 -554 48 l-476 0 34 43 c111 136 178 357 162 535 -21
228 -106 385 -316 587 -188 180 -362 303 -644 455 -104 57 -212 118 -238 138
l-48 34 3 115 3 115 45 17 c50 18 86 62 96 119 12 62 -45 140 -121 168 -15 6
-12 0 10 -22 91 -86 59 -178 -66 -190 -66 -7 -125 11 -151 47 -26 35 -16 89
26 137 l31 36 -45 -25 c-56 -32 -96 -102 -86 -152 13 -68 51 -107 129 -131 16
-5 17 -17 15 -118 l-3 -112 -47 -36 c-26 -19 -127 -78 -225 -130 -298 -160
-498 -303 -688 -494 -160 -161 -225 -263 -265 -421 -25 -97 -27 -279 -4 -375
18 -79 89 -229 138 -290 l36 -45 -478 -5 c-426 -4 -480 -7 -508 -22 -17 -10
-34 -25 -38 -33 -3 -9 -6 -163 -6 -341 l0 -324 -1725 0 -1725 0 0 223 c0 247
-10 315 -60 402 -16 28 -33 78 -39 115 -7 39 -11 262 -11 560 l0 496 64 111
65 111 2 93 2 94 -29 0 c-18 0 -28 -5 -26 -12 1 -9 -14 -13 -53 -13 l-55 0 0
362 0 362 40 47 40 48 0 95 c0 89 -1 96 -20 96 -11 0 -20 -7 -20 -15 0 -10
-10 -15 -30 -15 l-29 0 -3 388 -3 387 -41 85 c-35 72 -65 119 -126 197 -6 8
-4 10 10 6 15 -3 27 6 49 39 46 68 58 107 58 188 0 86 -18 127 -84 200 l-41
45 -41 -45 c-57 -62 -81 -120 -82 -194 0 -80 16 -133 58 -195 19 -28 35 -55
35 -60 0 -6 -24 -46 -54 -89 -97 -144 -96 -135 -96 -572 l0 -380 -24 0 c-13 0
-26 7 -30 15 -3 8 -15 15 -26 15 -19 0 -20 -6 -20 -98 l0 -98 40 -39 40 -39 0
-368 0 -368 -50 0 c-38 0 -50 4 -50 15 0 10 -10 15 -30 15 l-30 0 0 -92 0 -93
65 -113 66 -113 -3 -547 -3 -547 -38 -74 c-57 -111 -67 -171 -67 -433 0 -135
-4 -229 -10 -233 -5 -3 -15 3 -22 15 -17 26 -30 25 -67 -6 l-31 -26 0 -514 0
-514 6400 0 6400 0 -2 522 -3 522 -35 24 -35 23 -17 -21 c-10 -12 -24 -20 -32
-17 -12 5 -15 49 -16 266 -1 283 -2 289 -63 410 l-32 65 -3 547 -3 547 66 112
65 113 0 88 0 89 -30 0 c-16 0 -30 -4 -30 -10 0 -5 -22 -10 -50 -10 l-50 0 0
364 0 363 40 46 40 45 0 91 c0 90 0 91 -25 91 -16 0 -25 -6 -25 -15 0 -9 -9
-15 -25 -15 l-25 0 0 368 c0 334 -2 374 -19 423 -26 78 -62 145 -115 217 -39
52 -43 62 -27 62 23 0 53 39 82 105 25 56 28 174 6 226 -13 32 -90 130 -108
137 -4 2 -26 -20 -49 -49z m-11930 -1309 c0 -153 -2 -180 -15 -180 -13 0 -15
26 -15 173 0 96 3 177 7 180 19 20 23 -9 23 -173z m158 -2 l2 -178 -40 0 -40
0 0 181 0 180 38 -3 37 -3 3 -177z m110 -1 c2 -153 0 -177 -13 -177 -13 0 -15
26 -15 181 0 140 3 180 13 177 9 -4 13 -51 15 -181z m11592 3 c0 -144 -2 -170
-15 -170 -13 0 -15 26 -15 170 0 144 2 170 15 170 13 0 15 -26 15 -170z m160
0 l0 -170 -40 0 -40 0 0 170 0 170 40 0 40 0 0 -170z m100 0 c0 -107 -4 -170
-10 -170 -6 0 -10 63 -10 170 0 107 4 170 10 170 6 0 10 -63 10 -170z"/>
</g>
</svg>
